<svg width="210" height="204" viewBox="0 0 210 204" xmlns="http://www.w3.org/2000/svg" xmlns:xlink="http://www.w3.org/1999/xlink"><title>superhero</title><defs><rect id="a" x="122.649" y="62.046" width="12" height="21" rx="6"/><mask id="h" x="0" y="0" width="12" height="21" fill="#fff"><use xlink:href="#a"/></mask><rect id="b" x="86.617" y="73.498" width="12" height="21" rx="6"/><mask id="i" x="0" y="0" width="12" height="21" fill="#fff"><use xlink:href="#b"/></mask><path d="M93.903 77.382c.76-4.354 4.96-7.884 9.384-7.884h16.05c4.422 0 8.475 3.55 9.052 7.94l5.31 40.37c.577 4.384-2.485 7.292-6.826 6.497l-32.007-5.865c-4.348-.797-7.256-4.974-6.497-9.326l5.533-31.732z" id="c"/><mask id="j" x="0" y="0" width="45.521" height="54.938" fill="#fff"><use xlink:href="#c"/></mask><rect id="d" x="95.563" y="135.998" width="11" height="34.387" rx="5.5"/><mask id="k" x="0" y="0" width="11" height="34.387" fill="#fff"><use xlink:href="#d"/></mask><rect id="e" x="92.49" y="135.998" width="17.5" height="27.75" rx="8"/><mask id="l" x="0" y="0" width="17.5" height="27.75" fill="#fff"><use xlink:href="#e"/></mask><rect id="f" x="116.082" y="135.998" width="11" height="37.712" rx="5.5"/><mask id="m" x="0" y="0" width="11" height="37.712" fill="#fff"><use xlink:href="#f"/></mask><rect id="g" x="112.996" y="135.998" width="17.5" height="30.913" rx="8"/><mask id="n" x="0" y="0" width="17.5" height="30.913" fill="#fff"><use xlink:href="#g"/></mask></defs><g fill="none" fill-rule="evenodd"><path d="M105.123 68.998s-8.465-.7-12.75 1.875c-8.41 5.05-19.882 10.35-20.875 12.75-1.5 3.625 5.375 17.125 5.375 17.125l2.625-6.5s-3.5-7.115-2.625-8.375c.875-1.26 28.25-16.875 28.25-16.875zM132.623 80.873s5.125 9.72 5.125 11c0 1.28-3.375 7.938-4.187 8.5-.812.563-2.562-.875-2.562-.875l1.375 12.438s1.936-2.563 2.438-3.313c.502-.75.465-2.25.465-2.25.02-.552.318-1.354.654-1.78 0 0 8.818-10.97 8.193-12.97s-7.312-13.375-7.312-13.375l-2-1.437-2.874 2 .687 2.063z" stroke="#F60" stroke-width="2" fill="#FFF"/><path d="M87.177 157.983s-46.36-1.863-29.022 9.688c17.338 11.552 10.93 17.886 39.952 12.67 29.023-5.217 29.023-3.85 47.868-7.08 18.846-3.23 36.56-5.962 15.454-11.55-21.108-5.59-74.253-3.727-74.253-3.727z" stroke="#F60" stroke-width="2" fill="#FAC285"/><path d="M94.37 56.248s.5 1.25-3.25.625-8.75-.375-8.75 1.25-1.5 2.25 1.126 4.125c2.625 1.875 3.625 2.875 3.625 2.875s.25-4.375 2.126-4.375c1.875 0 6.125-3.125 6.125-3.125l-1-1.375zM93.03 54.248s-2.758-5.67-2.16-11.25c.448-4.172 8.43-10.037 9.5-10.625 2.5-1.375-9.343 3.654-10.59 5.375-1.247 1.72-1.41 2.222-1.41 6.625 0 4.403 4.66 9.875 4.66 9.875z" stroke="#F60" fill="#F60"/><g transform="translate(139.864 11.02)"><circle fill="#F60" cx="25.123" cy="14.063" r="2.813"/><g stroke="#F60" stroke-width="1.875" stroke-linecap="round"><path d="M13.78 17.813v9.56M18.654 22.5h-9.56"/></g><g stroke="#F60" stroke-width="1.875" stroke-linecap="round"><path d="M5.884.938v9.56M10.757 5.625h-9.56M2.504 2.245l6.76 6.76M9.357 2.245l-6.76 6.76"/></g></g><g stroke-linecap="round" stroke-width="1.875" stroke="#F60"><path d="M54.084 48.21v9.56M58.957 52.896h-9.56"/><g><path d="M65.123 59.46v9.56M69.996 64.146h-9.56M61.743 60.766l6.76 6.76M68.596 60.766l-6.76 6.76"/></g></g><g transform="translate(13.676 32.146)"><circle fill="#F60" cx="21.384" cy="2.813" r="2.813"/><g stroke="#F60" stroke-width="1.875" stroke-linecap="round"><path d="M27.943 40.938v9.56M32.816 45.625h-9.56"/></g><g stroke="#F60" stroke-width="1.875" stroke-linecap="round"><path d="M5.788 8.438v9.56M10.66 13.125H1.1M2.407 9.745l6.76 6.76M9.26 9.745l-6.76 6.76"/></g></g><use stroke="#F60" mask="url(#h)" stroke-width="6" fill="#F60" transform="rotate(-41 128.65 72.546)" xlink:href="#a"/><use stroke="#F60" mask="url(#i)" stroke-width="6" fill="#F60" transform="rotate(30 92.617 83.998)" xlink:href="#b"/><use stroke="#F60" mask="url(#j)" stroke-width="8" fill="#F60" xlink:href="#c"/><use stroke="#F60" mask="url(#k)" stroke-width="6" fill="#F60" xlink:href="#d"/><use stroke="#F60" mask="url(#l)" stroke-width="6" fill="#F60" xlink:href="#e"/><use stroke="#F60" mask="url(#m)" stroke-width="6" fill="#F60" xlink:href="#f"/><use stroke="#F60" mask="url(#n)" stroke-width="6" fill="#F60" xlink:href="#g"/><path d="M122.497 64.998s-2.75.75 0 3 8.75 3 8.75 4.75-5.5 10.75-5.5 26.75 10.75 19.5 13 31.75c1.027 5.593-1.776 13.987 0 20 2.114 7.157 7.942 10.914 7.942 10.914.445.324.378.48-.16.345 0 0-82.533-20.51-85.283-23.76s14.25-41.75 14.25-41.75 10.5-24.5 22.75-26.75 2.975-3.874 2.975-3.874 9.275 4.374 11.525 4.374 9.75-5.75 9.75-5.75z" stroke="#F60" stroke-width="3" fill="#FAC285"/><path d="M110.746 64.435c2.838.446 6.33-.524 9.697-2.937 2.65-1.9 4.06-5.212 4.62-6.875.09-.27-.812-4.875 1.563-5.687 2.375-.813 1.875-2.25 1.5-2.625-.375-.374-.81-.19-1.5-.5-.432-.193-.587-.67-1-1.25-.48-.67-2.24-2.832-3.25-3.874-.61-.63-1.933-2.008-1.933-2.008l-8.692-9.18s-13.96 2.18-18.624 8.25c-4.663 6.07 14.432 26.187 17.62 26.687z" stroke="#F60" stroke-width="1.5" fill="#FFF"/><path d="M77.87 96.123s-4.556 10.29-6.374 15.375c-.546 1.526-.36 4.084-1 6-.428 1.28-2.033 1.928-2.5 3.25-.484 1.368-.192 3.51-.625 4.875-.355 1.12-2.15 2.102-2.5 3.125-1.693 4.952-1.75 8.625-1.75 8.625l2.75 1.5 12-42.75zM80.246 103.498c-.625 4.25-2.25 6.75-2.25 12.75s2.625 12.625 2.625 15.125-.624 5.125.876 8.875 2.69 4.438 2.69 4.438l11.812 3.187-3.752-9.5s0-3.5-2-14.5-9.375-24.625-10-20.375zM85.12 93.623s15.126 36 15.626 37.5-.875 13-.875 14.25-.747 3.438-.747 3.438L115.185 153s1.436-8.5-.94-13.5c-2.374-5-3.624-6.125-6-5.375-2.374.75-2.624-1.125-1-2.375 1.626-1.25 3.626-2 3.626-2l-6-1.5s2.25-2.5 1.126-4.625c-1.125-2.125-15.625-24.125-15.625-24.125l-5.25-5.875zM124.746 120.373c-1.262-1.856-5.75-4.5-5.75-4.5l11.5 26.125-2.625-11.875s-1.47-7.314-3.124-9.75zM103.996 73.373s-4.186 3.04-2 6.592c2.188 3.553 4.18 16.56 5.674 15.924 1.496-.636 2.302-15.372-.418-16.662-2.72-1.29-3.256-5.855-3.256-5.855zM111.392 78.292c1.885.525 4.69 3.163 4.69 3.163l-4.755-9.39s.152 1.435-.484 3.405c-.636 1.97-1.337 2.297.55 2.822zM116.326 70.872s5.5 9 4.625 15.75c-.874 6.75.626 8.5.626 8.5l1.375-18.75-6.624-5.5z" fill="#FFF"/><path d="M82.995 91.997s7.75 2 19.876 4.75c12.126 2.75 19.125 0 19.125 0s-2.485 9.21-3 15.375c-.485 5.835 0 20.625 0 20.625s-7.75-17.75-16.124-26c-8.374-8.25-19.875-14.75-19.875-14.75z" fill="#F60"/><path fill="#FFF" d="M114.277 104.185l-3.375.5 3.375.594-.25 9.468 1.313-9.313 3.125-.156-3-.97-.282-4.156zM129.623 72.373c-.144-2.277-1.37-4.69-3.252-5.375-4.124-1.5-7.997 2.813-7.997 2.813s4.364.137 6.01 1.794c2.27 2.29 2.19 5.28 3.177 5.644 1.045.384 2.235-2.163 2.063-4.875zM115.62 130.623s3 4.75 3.876 7.375c.875 2.625.25 5 .25 5s2.125 1.25 2.625 1.25-.624 1.25-.624 2-.625 3.25 2.25 3.25 5 2.25 5 3 3.752 4.875 3.752 4.875-9.377-17.625-9.377-18.5-7.75-8.25-7.75-8.25zM91.746 74.623c-3.225 2.295-8.607 10.03-8.125 11.125 1.376 3.125 1.814 4.72 2.564 5.72s0-8.624 0-8.624 3 4.75 4.125 7.5c1.124 2.75 0-10.125 0-10.125h6.936l-1.937-2.75 6.25-5.25 3.186-2.097s-7.02.242-13 4.5z"/><path d="M118.873 34.56c.935-3.5-1.686-6.024-7.44-5.687-7.006.41-17.07 5.99-19.812 10.5-4.16 6.844 1.998 18.08 3.517 19.797 3.34 3.774 9.108 5.078 9.108 5.078l6.313.375-2.937-4.437s.47-2.282-2.528-2.282c-3 0-4.03-2.78-3.063-4.5.968-1.72 3.335-.252 3.335-1.156 0-2.75-.12-7.375 2.256-9.625s10.318-4.563 11.253-8.063z" stroke="#F60" fill="#F60"/><path d="M88.433 47.498s6.818 3.098 13.565 3.312c2.638.084 8.26-.422 10.438-.875 1.92-.398-.57-7 2.31-8.687 3.54-2.07 9.375-.5 9.375-.5l1.75 2.375s-.262 5.858-4.25 8.188c-.975.57-3.81 2.063-7.622 1.125-.32-.078-1.053-2.198-1.375-2.25-.164-.026 1.538 2.262 1.375 2.25-3.324-.23-8.3.185-12.25 0-6.698-.313-12.625-3-12.625-3l-.69-1.937z" stroke="#F60" fill="#FAC285"/><path d="M116.308 49.81V44.5c0-2.75 7.063-1.5 7.063-1.5s0 4.188-2.25 5.063c-2.25.876-4.812 1.75-4.812 1.75z" stroke="#F60" fill="#FFF"/><path d="M118.84 46.186a.844.844 0 1 0 0-1.688.844.844 0 0 0 0 1.688z" stroke="#F60" fill="#F60"/><path d="M125.058 52.436s-.53 2.54-1.78 1.968c-1.25-.57-.25 1.344-.25 1.344l.825.938 1.205-4.25z" stroke="#F60" fill="#FAC285"/><path d="M93.543 58.045l1.328-.516 1.83 2-1.97.42z"/><path d="M104.996 64.373s1.625 3 1.625 3.75M116.746 63.998l1.375 3.125" stroke="#F60" stroke-width="1.5"/><path d="M102.498 170.248s5.403-1.858 7-2.75c.735-.41 3.363-2.346 3.25-3.75-.077-.956-2.607-1.526-3.25-1.75-1.588-.554-3.5 1-3.5 1l-2.5 2.5-1 4.75zM123.123 173.186s.942-.047 1.687-.438c.6-.314 5.142-2.432 6.438-4.5.602-.962.297-1.978 0-2.375-.938-1.25-7.44.587-7.44.587l-2.5 2.5 1.815 4.226z" fill="#F60"/><path d="M106.122 64.81l1.25 2.875 5.5 2 4.375-2.75-.75-2.375s-2.75.625-4.875.625-5.5-.375-5.5-.375z" fill="#FFF"/><path d="M106.076 64.842l1.422 3.22s1.703.368 2.625.686c.89.307 2.875 1 2.875 1l-2.25-2.75-1.75-1.125-.313-.89-2.61-.14z" fill="#FAC285"/></g></svg>